<?xml version="1.0" encoding="UTF-8"?>
<svg width="180px" height="96px" viewBox="0 0 180 96" version="1.1" xmlns="http://www.w3.org/2000/svg" xmlns:xlink="http://www.w3.org/1999/xlink">
    <!-- Generator: Sketch 58 (84663) - https://sketch.com -->
    <title>Group 9</title>
    <desc>Created with Sketch.</desc>
    <g id="home" stroke="none" stroke-width="1" fill="none" fill-rule="evenodd">
        <g id="Group-9">
            <path d="M57.43039,65.68362 C55.5097337,65.68362 53.71118,65.2034631 52.034675,64.243135 C50.35817,63.2828069 49.0153584,61.8748893 48.0062,60.01934 C46.9970416,58.1637907 46.49247,55.9176332 46.49247,53.2808 L46.49247,52.49952 C46.49247,49.8626868 46.9970416,47.6165293 48.0062,45.76098 C49.0153584,43.9054307 50.3500317,42.4975131 52.01026,41.537185 C53.6704883,40.5768569 55.4771802,40.0967 57.43039,40.0967 C58.8952973,40.0967 60.1241734,40.2676033 61.117055,40.609415 C62.1099366,40.9512267 62.9156236,41.3825541 63.53414,41.90341 C64.1526564,42.4242659 64.624675,42.9776671 64.95021,43.56363 L65.82915,43.56363 L65.82915,30.819 L71.98173,30.819 L71.98173,65 L65.92681,65 L65.92681,62.0702 L65.04787,62.0702 C64.4944606,62.9816979 63.6399441,63.8117996 62.484295,64.56053 C61.3286459,65.3092604 59.6440277,65.68362 57.43039,65.68362 Z M59.28593,60.31232 C61.1740328,60.31232 62.7528537,59.7019511 64.02244,58.481195 C65.2920263,57.2604389 65.92681,55.4781617 65.92681,53.13431 L65.92681,52.64601 C65.92681,50.3021583 65.3001646,48.5198811 64.046855,47.299125 C62.7935454,46.0783689 61.2065863,45.468 59.28593,45.468 C57.3978272,45.468 55.8190063,46.0783689 54.54942,47.299125 C53.2798337,48.5198811 52.64505,50.3021583 52.64505,52.64601 L52.64505,53.13431 C52.64505,55.4781617 53.2798337,57.2604389 54.54942,58.481195 C55.8190063,59.7019511 57.3978272,60.31232 59.28593,60.31232 Z M90.63479,65.68362 C88.0305103,65.68362 85.7680763,65.1953249 83.84742,64.21872 C81.9267637,63.2421151 80.4456019,61.8911653 79.40389,60.16583 C78.3621781,58.4404947 77.84133,56.4547612 77.84133,54.20857 L77.84133,42.5382 C77.84133,39.7711528 78.4028694,37.4680275 79.525965,35.628755 C80.6490606,33.7894825 82.1953285,32.4141179 84.164815,31.50262 C86.1343015,30.5911221 88.3885973,30.13538 90.92777,30.13538 C93.4669427,30.13538 95.672409,30.5585691 97.544235,31.40496 C99.416061,32.2513509 100.86467,33.4720887 101.890105,35.06721 C102.91554,36.6623313 103.42825,38.5666823 103.42825,40.78032 L97.08035,40.78032 C97.08035,39.4130732 96.6083314,38.2248884 95.66428,37.21573 C94.7202286,36.2065716 93.1414077,35.702 90.92777,35.702 C88.7466858,35.702 87.0620676,36.2716776 85.873865,37.41105 C84.6856624,38.5504224 84.09157,40.1292432 84.09157,42.14756 L84.09157,45.66332 L84.97051,45.66332 C85.5239194,45.0122501 86.3702976,44.3937429 87.50967,43.80778 C88.6490424,43.2218171 90.3092458,42.92884 92.49033,42.92884 C94.4760933,42.92884 96.3072,43.3520291 97.983705,44.19842 C99.66021,45.0448109 101.019298,46.2736869 102.06101,47.885085 C103.102722,49.4964831 103.62357,51.4415253 103.62357,53.72027 L103.62357,54.30623 C103.62357,56.5524212 103.086445,58.5300165 102.01218,60.239075 C100.937915,61.9481335 99.4241998,63.2828069 97.47099,64.243135 C95.5177802,65.2034631 93.2390697,65.68362 90.63479,65.68362 Z M121.79346,65.68362 C119.18918,65.68362 116.926746,65.1953249 115.00609,64.21872 C113.085434,63.2421151 111.604272,61.8911653 110.56256,60.16583 C109.520848,58.4404947 109,56.4547612 109,54.20857 L109,42.5382 C109,39.7711528 109.561539,37.4680275 110.684635,35.628755 C111.807731,33.7894825 113.353998,32.4141179 115.323485,31.50262 C117.292972,30.5911221 119.547267,30.13538 122.08644,30.13538 C124.625613,30.13538 126.831079,30.5585691 128.702905,31.40496 C130.574731,32.2513509 132.02334,33.4720887 133.048775,35.06721 C134.07421,36.6623313 134.58692,38.5666823 134.58692,40.78032 L128.23902,40.78032 C128.23902,39.4130732 127.767001,38.2248884 126.82295,37.21573 C125.878899,36.2065716 124.300078,35.702 122.08644,35.702 C119.905356,35.702 118.220738,36.2716776 117.032535,37.41105 C115.844332,38.5504224 115.25024,40.1292432 115.25024,42.14756 L115.25024,45.66332 L116.12918,45.66332 C116.682589,45.0122501 117.528968,44.3937429 118.66834,43.80778 C119.807712,43.2218171 121.467916,42.92884 123.649,42.92884 C125.634763,42.92884 127.46587,43.3520291 129.142375,44.19842 C130.81888,45.0448109 132.177968,46.2736869 133.21968,47.885085 C134.261392,49.4964831 134.78224,51.4415253 134.78224,53.72027 L134.78224,54.30623 C134.78224,56.5524212 134.245115,58.5300165 133.17085,60.239075 C132.096585,61.9481335 130.58287,63.2828069 128.62966,64.243135 C126.67645,65.2034631 124.39774,65.68362 121.79346,65.68362 Z M90.73245,60.117 C92.7833203,60.117 94.4028324,59.5798754 95.591035,58.50561 C96.7792376,57.4313446 97.37333,55.9990123 97.37333,54.20857 L97.37333,53.81793 C97.37333,52.6134506 97.1047677,51.5717544 96.567635,50.69281 C96.0305023,49.8138656 95.2655066,49.1302524 94.272625,48.64195 C93.2797434,48.1536476 92.0996968,47.9095 90.73245,47.9095 C89.3977567,47.9095 88.2258484,48.1536476 87.21669,48.64195 C86.2075316,49.1302524 85.4343977,49.8138656 84.897265,50.69281 C84.3601323,51.5717544 84.09157,52.6134506 84.09157,53.81793 L84.09157,54.20857 C84.09157,55.9990123 84.6856624,57.4313446 85.873865,58.50561 C87.0620676,59.5798754 88.6815797,60.117 90.73245,60.117 Z M121.89112,60.117 C123.94199,60.117 125.561502,59.5798754 126.749705,58.50561 C127.937908,57.4313446 128.532,55.9990123 128.532,54.20857 L128.532,53.81793 C128.532,52.6134506 128.263438,51.5717544 127.726305,50.69281 C127.189172,49.8138656 126.424177,49.1302524 125.431295,48.64195 C124.438413,48.1536476 123.258367,47.9095 121.89112,47.9095 C120.556427,47.9095 119.384518,48.1536476 118.37536,48.64195 C117.366202,49.1302524 116.593068,49.8138656 116.055935,50.69281 C115.518802,51.5717544 115.25024,52.6134506 115.25024,53.81793 L115.25024,54.20857 C115.25024,55.9990123 115.844332,57.4313446 117.032535,58.50561 C118.220738,59.5798754 119.84025,60.117 121.89112,60.117 Z" id="d66" fill="#F53B47" fill-rule="nonzero"></path>
            <rect id="Rectangle" stroke="#F53B47" x="0.5" y="0.5" width="179" height="95"></rect>
        </g>
    </g>
</svg>